<?xml version="1.0" encoding="UTF-8"?>
<!-- Generator: Adobe Illustrator 15.0.0, SVG Export Plug-In . SVG Version: 6.00 Build 0)  -->
<!DOCTYPE svg PUBLIC "-//W3C//DTD SVG 1.1//EN" "http://www.w3.org/Graphics/SVG/1.1/DTD/svg11.dtd">
<svg fill="currentColor" version="1.1" id="Layer_1" xmlns="http://www.w3.org/2000/svg" x="0px" y="0px" width="532px" height="502px" viewBox="31.14 169.445 532 502" enable-background="new 31.14 169.445 532 502" xml:space="preserve">
<g>
	<polygon fill="currentColor" points="309.625,212.971 229.795,323.918 66.665,378.172 264.046,378.172  "/>
	<path fill="currentColor" d="M238.663,508.423l53.754-82.422c83.642-29.921,118.417-41.925,118.417-41.925l-138.941-0.179   L238.663,508.423z"/>
	<path fill="currentColor" d="M188.942,383.896l-5.929,9.388h63.646c-3.985,3.669-29.047,3.322-29.047,3.322h-37.041l-5.204,7.646h69.376   c-4.34,6.627-31.984,6.1-31.984,6.1h-41.753l-5.902,8.352h76.35c-5.058,10.258-37.912,9.739-37.912,9.739H158.33l-6.626,9.387   h82.079c-6.082,14.074-45.885,13.203-45.885,13.203h-45.585l-9.192,13.4h92.517c-6.279,14.076-45.934,13.201-45.934,13.201h-55.996   l-12.155,17.213h103.298c-7.845,20.004-58.264,18.961-58.264,18.961H98.322l-15.12,21.57h118.072   c-7.818,22.441-58.411,21.225-58.411,21.225H68.229L46.688,587.56c0,0,95.478,0,117.371,0c21.92,0,42.248-4.879,47.652-22.965   c2.587-8.691,27.127-96.697,50.616-180.698L188.942,383.896L188.942,383.896z"/>
	<path fill="currentColor" d="M318.845,428.091c15.47,0,27.995,12.502,27.995,27.996c0,15.646-12.525,28.174-27.995,28.174   c-15.646,0-28.17-12.525-28.17-28.174C290.674,440.593,303.198,428.091,318.845,428.091z"/>
	<path fill="currentColor" d="M87.886,416.434v-32.011h52.882c-0.177,1.917-0.522,4.007-0.522,5.924c0,2.765-0.525,6.606-0.525,9.921   c0,0.172,0,0.172,0,0.172c0,11.98,2.093,24.862,5.73,36.69l-29.219,41.377l-9.042,3.836l-12.156-29.742l16.517-6.775   c-2.966-9.566-5.058-19.48-6.279-29.392H87.886L87.886,416.434z M252.039,278.185L252.039,278.185   c1.048-0.179,2.267-0.179,3.314-0.351l23.663-32.707v-19.805h-32.183v17.912c-9.915,1.023-19.831,2.944-29.221,5.729l-6.946-16.342   l-29.569,12.159l6.8,16.362c-8.895,4.686-17.237,10.265-25.061,16.521l-12.329-12.358l-22.793,22.617l12.355,12.332   c-6.255,7.849-11.832,16.193-16.689,25.061l-16.19-6.626l-12.156,29.57l19.977,8.342l38.61-12.855   c0.871-1.57,1.745-3.139,2.79-4.881h-0.178c2.792-4.682,5.732-9.215,9.046-13.375c6.602-8.344,14.273-16.017,22.767-22.62   c4.186-3.315,8.718-6.252,13.401-8.868c3.488-2.093,7.124-3.987,10.961-5.556c0.174-0.172,0.351-0.172,0.524-0.344   c0.346,0,0.693-0.179,0.871-0.354c0.346-0.172,0.697-0.344,1.044-0.344c0.146-0.179,0.352-0.179,0.697-0.351   c0.348-0.176,0.846-0.348,1.197-0.52c0.175,0,0.347-0.179,0.524-0.179c0.346-0.172,0.697-0.348,1.217-0.52   c0.177,0,0.354-0.172,0.525-0.172c0.348-0.179,0.699-0.352,1.044-0.352c0.35-0.175,0.699-0.348,1.045-0.348   c0.177-0.179,0.354-0.179,0.523-0.351c0.524,0,0.873-0.172,1.224-0.348c0.172,0,0.524-0.172,0.697-0.172   c0.348-0.178,0.699-0.351,1.046-0.351c0.35-0.172,0.498-0.172,0.697-0.348c1.894-0.523,3.81-1.05,5.901-1.573   C237.964,279.927,244.913,278.705,252.039,278.185z"/>
	<path fill="currentColor" d="M224.939,557.646c0,0,7.123-12.531,30.588-12.531c23.489,0,110.969,0,110.969,0s34.427-0.691,55.474-12.525   c21.221-11.633,29.718-28.846,35.993-49.197c6.255-20.352,71.815-258.069,71.815-258.069H315.702l-11.108,40.681h173.195   c0,0-0.521,2.44-1.74,6.599h-172.5l-2.092,7.673h172.497c-0.695,2.592-1.568,5.728-2.616,9.04H298.846l-2.095,7.653H469.27   c-1.045,3.983-2.263,8.341-3.484,12.851H293.287l-2.266,7.673h172.669c-1.37,4.857-2.766,10.09-4.334,15.295h-172.52l-2.067,7.47   h172.494c-1.741,6.252-3.485,12.707-5.207,19.13h-172.69l-2.096,7.65h172.697c-12.357,44.193-24.537,87.833-26.778,95.131   c-4.71,15.295-11.312,28.523-27.327,37.389c-15.99,8.867-42.244,9.564-42.244,9.564s-76.667,0-94.429,0   c-17.911,0-23.313,9.395-23.313,9.395L224.939,557.646z"/>
	<path fill="currentColor" d="M219.534,576.427c0,0,6.948-12.527,30.437-12.527c23.491,0,144.347,0,144.347,0s18.084-0.873,39.133-12.529   c21.025-11.637,34.773-28.871,41.023-49.197c5.059-16.865,50.97-182.788,66.438-239.309h-15.297   c-18.081,65.913-57.911,209.567-62.795,225.209c-6.256,20.352-14.421,37.563-35.646,49.223   c-21.021,11.832-39.456,12.527-39.456,12.527s-109.574,0-133.063,0c-23.467,0-30.414,12.504-30.414,12.504L219.534,576.427z"/>
	<path fill="currentColor" d="M213.28,595.908c0,0,6.948-12.531,30.415-12.531c23.516,0,161.063,0,161.063,0s23.641-0.695,44.688-12.529   c21.222-11.633,36.867-28.867,43.118-49.193c4.88-16.021,47.302-167.473,64.863-230.618h-17.211   c-19.134,69.049-55.649,201.571-60.331,216.516c-6.275,20.352-18.459,37.563-39.655,49.395   c-21.051,11.637-37.217,12.332-37.217,12.332s-131.12,0-154.61,0c-23.464,0-30.438,12.529-30.438,12.529L213.28,595.908z"/>
	<path fill="currentColor" d="M55.551,625.275c0.353-0.672,1.05-1.891,1.895-3.811c0.372-0.523,0.697-1.395,1.223-2.617   c-0.671-1.393-1.723-3.311-3.117-5.553c-0.174-0.35-1.568-2.439-3.835-6.453c-1.742-2.418-2.766-4.334-3.46-5.555   c0.348,0,0.846,0,1.543,0.174c0.698,0,1.218,0,1.569,0c0.348,0,0.873,0,1.569,0c0.697-0.174,1.223-0.174,1.569-0.174   c0.346,0.699,1.043,1.742,1.916,3.488c0.178,0.348,1.222,1.893,2.765,4.682c1.223,1.92,1.921,3.139,2.093,3.662   c0.525-0.873,1.57-2.791,2.792-5.58c0.699-1.545,1.741-3.639,2.939-6.252l1.568,0.174l1.741-0.174   c-0.696,1.221-1.916,3.664-3.656,7.123c-1.723,3.314-3.29,6.451-4.859,9.393c-1.742,3.662-2.792,6.104-3.314,7.473   c-0.148,0-0.348,0-0.674,0c-0.372-0.176-0.696-0.176-0.871-0.176L55.551,625.275z"/>
	<path fill="currentColor" d="M84.748,625.275v-23.986c0.346,0,0.696,0,1.244,0.172c0.696,0,1.021,0,1.395,0c0.326,0,0.673,0,1.197,0   c0.699-0.172,1.044-0.172,1.396-0.172v9.566c0.699,0,1.742,0,3.139,0c1.218,0,1.917,0.172,2.267,0.172c0.847,0,1.37,0,1.894-0.172   c2.092,0,3.313,0,3.485,0v-9.566c0.174,0,0.699,0,1.224,0.172c0.697,0,1.043,0,1.396,0c0.172,0,0.697,0,1.192,0   c0.697-0.172,1.05-0.172,1.395-0.172v23.986c-0.345,0-0.697,0-1.218,0c-0.671-0.176-1.022-0.176-1.369-0.176   c-0.354,0-0.699,0-1.396,0.176c-0.524,0-0.875,0-1.224,0V613.64c-0.697,0-1.742,0-3.138-0.174c-1.395,0-2.241,0-2.241,0   c-0.896,0-1.745,0-2.79,0s-1.917,0.174-2.615,0.174v11.635c-0.177,0-0.695,0-1.222,0c-0.697-0.176-1.044-0.176-1.37-0.176   c-0.373,0-0.697,0-1.247,0.176C85.445,625.275,85.094,625.275,84.748,625.275z"/>
	<path fill="currentColor" d="M122.686,625.275v-23.986c0.349,0,0.847,0,1.371,0c0.521,0.172,1.044,0.172,1.393,0.172   c0.172,0,0.696,0,1.222-0.172c0.524,0,1.044,0,1.396,0v16.342c1.916-2.094,4.157-4.686,6.948-7.998   c2.439-3.311,4.534-6.08,6.254-8.344c0.348,0,0.697,0,0.896,0c0.147,0,0.5,0,0.846,0c0.522,0,0.699,0,0.871,0v23.986   c-0.172,0-0.697,0-1.217,0c-0.5-0.176-1.049-0.176-1.396-0.176c-0.151,0-0.677,0-1.197,0.176c-0.522,0-1.048,0-1.395,0v-16.518   c-1.916,2.27-4.36,5.061-6.801,8.174c-2.592,3.139-4.681,5.928-6.427,8.344c-0.175,0-0.349,0-0.699,0c-0.174,0-0.347,0-0.347,0   c-0.347,0-0.524,0-0.871,0C123.182,625.275,123.033,625.275,122.686,625.275z"/>
	<path fill="currentColor" d="M168.767,611.378c0.498,0,0.845-0.352,1.369-0.699c0.351-0.352,0.699-0.875,1.05-1.572   c0.174-0.695,0.347-1.395,0.347-2.09c0-1.193-0.347-2.064-1.046-2.766c-0.351-0.521-1.022-0.871-1.72-0.871v-2.092h1.023   c1.916,0,3.661,0.348,4.879,1.043c1.396,1.049,2.093,2.443,2.093,4.338c0,1.566-0.523,2.787-1.742,3.834   c-1.048,0.875-2.44,1.396-4.014,1.742v0.178c1.747,0.348,2.965,0.695,4.187,1.396c1.396,1.043,2.094,2.59,2.094,4.506   c0,2.27-0.874,4.012-2.618,5.232c-1.567,1.047-3.483,1.543-5.902,1.543v-2.066c0.697-0.174,1.196-0.525,1.895-1.221   c0.87-0.699,1.222-1.918,1.222-3.314c0-1.744-0.523-3.139-1.573-3.834c-0.346-0.326-0.846-0.5-1.542-0.676V611.378L168.767,611.378   z M165.978,603.38l1.742-0.178c0.347,0,0.699,0,1.046,0.178v-2.092h-8.019v23.813h8.019v-2.066c-0.348,0-0.699,0.174-1.046,0.174   h-1.742v-9.566c1.045,0,2.089,0.178,2.789,0.35v-2.611c-0.348,0.172-1.046,0.172-1.744,0.172h-1.045V603.38L165.978,603.38z"/>
	<path fill="currentColor" d="M192.58,601.289h13.376c0,0.348-0.148,0.523-0.148,0.871c0,0.172,0,0.521,0,0.697c0,0.174,0,0.346,0,0.695   c0,0.348,0.148,0.527,0.148,0.699c-1.194-0.172-2.416-0.172-3.812-0.352c-1.222,0-2.612,0-4.359,0v7.477h3.662   c0.697,0,1.223,0,1.92,0c0.521-0.174,1.395-0.174,2.439-0.35c0,0.176,0,0.35-0.2,0.697c0,0.35,0,0.697,0,0.871   c0,0.172,0,0.35,0,0.697c0.2,0.346,0.2,0.523,0.2,0.695c-1.396-0.172-2.79-0.172-4.358-0.172h-3.663v8.867   c1.747,0,3.138-0.178,4.359-0.178c1.396,0,2.617-0.172,3.812-0.344c0,0.172-0.148,0.521-0.148,0.695c0,0.348,0,0.523,0,0.871   c0,0,0,0.348,0,0.674c0,0.344,0.148,0.521,0.148,0.695H192.58V601.289z"/>
	<path fill="currentColor" d="M229.096,601.289h0.699c5.031,0,7.472,1.914,7.472,5.904c0,2.963-1.044,4.881-2.939,6.102   c-1.242,0.695-2.965,1.215-5.23,1.371v-2.242c0.874-0.35,1.569-0.873,2.093-1.566c0.354-0.871,0.699-1.75,0.699-2.969   c0-1.395-0.346-2.59-1.045-3.465c-0.351-0.521-1.048-1.043-1.747-1.221L229.096,601.289L229.096,601.289z M226.483,614.861   c0.871,0,1.742,0,2.613-0.195v-2.242c-0.174,0.174-0.174,0.174-0.346,0.174c-0.699,0.172-1.569,0.172-2.268,0.172v-9.564h2.094   c0.174,0,0.346,0,0.52,0v-1.916h-7.997v23.988c0.354,0,0.699,0,1.396,0c0.522-0.176,1.048-0.176,1.396-0.176   c0.177,0,0.699,0,1.197,0.176c0.697,0,1.044,0,1.396,0L226.483,614.861L226.483,614.861z"/>
	<path fill="currentColor" d="M269.801,621.113l0.349,0.176l-0.696,2.967c-1.049,0.494-2.244,0.846-3.289,1.191   c-1.223,0.176-2.467,0.352-3.688,0.352c-3.811,0-6.949-1.049-9.39-3.291c-2.59-2.092-3.813-5.053-3.813-8.518   c0-4.357,1.395-7.668,4.161-10.09c2.438-2.088,5.755-3.311,9.738-3.311c1.222,0,2.439,0.176,3.836,0.523   c1.222,0.348,2.267,0.697,3.314,1.219l-0.696,3.662h-0.525c-0.697-0.871-1.542-1.742-2.592-2.268   c-1.045-0.697-2.115-1.047-3.337-1.047c-2.589,0-4.68,1.221-6.25,3.461c-1.222,2.094-1.747,4.361-1.747,7.326   c0,3.115,0.697,5.557,2.093,7.475c1.396,1.744,3.463,2.791,6.078,2.791c1.222,0,2.266-0.35,3.514-0.699   C267.906,622.507,268.93,621.814,269.801,621.113z"/>
	<path fill="currentColor" d="M285.442,625.275v-23.986c0.351,0,0.699,0,1.396,0c0.524,0.172,1.045,0.172,1.219,0.172   c0.353,0,0.875,0,1.396-0.172c0.522,0,1.05,0,1.396,0v16.342c1.919-2.094,4.161-4.686,6.775-7.998   c2.617-3.311,4.706-6.08,6.423-8.344c0.348,0,0.696,0,0.871,0c0.174,0,0.524,0,0.87,0c0.525,0,0.698,0,0.871,0v23.986   c-0.173,0-0.696,0-1.217,0c-0.524-0.176-1.049-0.176-1.396-0.176c-0.152,0-0.697,0-1.196,0.176c-0.521,0-1.042,0-1.394,0v-16.518   c-1.915,2.27-4.356,5.061-6.799,8.174c-2.589,3.139-4.684,5.928-6.603,8.344c0,0-0.346,0-0.52,0c-0.175,0-0.352,0-0.352,0   c-0.348,0-0.697,0-0.871,0C285.989,625.275,285.792,625.275,285.442,625.275z"/>
	<path fill="currentColor" d="M332.919,603.73v21.547c-0.174,0-0.698,0-1.396,0c-0.85-0.176-1.197-0.176-1.197-0.176   c-0.173,0-0.696,0-1.222,0.176c-0.698,0-1.044,0-1.393,0V603.73c-1.223,0-2.268,0.172-3.314,0.172   c-0.871,0.18-1.916,0.18-3.112,0.352c0-0.352,0-0.523,0-0.871c0.175-0.178,0.175-0.352,0.175-0.699   c0-0.174-0.175-0.521-0.175-0.695c0-0.35,0-0.525,0-0.697h17.909c0,0.523,0,1.043-0.174,1.393c0,0.35,0,0.521,0.174,0.871   c0,0.178,0,0.527,0,0.699c-1.566-0.172-2.618-0.352-2.964-0.352C335.186,603.9,333.963,603.73,332.919,603.73z"/>
	<path fill="currentColor" d="M353.441,601.289h13.403c-0.176,0.348-0.176,0.523-0.176,0.871c0,0.172,0,0.521,0,0.697   c0,0.174,0,0.346,0,0.695c0,0.348,0.176,0.527,0.176,0.699c-1.222-0.172-2.44-0.172-3.837-0.352c-1.223,0-2.588,0-4.336,0v7.477   h3.639c0.697,0,1.221,0,1.92,0c0.521-0.174,1.394-0.174,2.438-0.35c0,0.176-0.174,0.35-0.174,0.697c0,0.35,0,0.697,0,0.871   c0,0.172,0,0.35,0,0.697c0,0.346,0.174,0.523,0.174,0.695c-1.396-0.172-2.79-0.172-4.358-0.172h-3.639v8.867   c1.748,0,3.113-0.178,4.336-0.178c1.396,0,2.615-0.172,3.837-0.344c-0.176,0.172-0.176,0.521-0.176,0.695c0,0.348,0,0.523,0,0.871   c0,0,0,0.348,0,0.674c0,0.344,0.176,0.521,0.176,0.695h-13.403V601.289L353.441,601.289z"/>
	<path fill="currentColor" d="M391.529,603.73v21.547c-0.348,0-0.871,0-1.567,0c-0.699-0.176-1.048-0.176-1.048-0.176   c-0.352,0-0.849,0-1.396,0.176c-0.498,0-1.022,0-1.368,0V603.73c-1.219,0-2.268,0.172-3.141,0.172   c-1.048,0.18-2.093,0.18-3.314,0.352c0-0.352,0-0.523,0.178-0.871c0-0.178,0-0.352,0-0.699c0-0.174,0-0.521,0-0.695   c-0.178-0.35-0.178-0.525-0.178-0.697h18.087c-0.173,0.523-0.173,1.043-0.349,1.393c0,0.35,0.176,0.521,0.176,0.871   c0,0.178,0,0.527,0.173,0.699c-1.722-0.172-2.765-0.352-3.115-0.352C393.62,603.9,392.576,603.73,391.529,603.73z"/>
	<path fill="currentColor" d="M93.292,504.441L74.333,514.5c-0.173-0.172-0.347-0.52-0.521-1.02c-0.176-0.523-0.176-0.869-0.346-1.223   c-0.177-0.172-0.351-0.52-0.699-0.869c-0.349-0.523-0.522-0.699-0.697-1.047l13.025-6.947c-2.414-0.523-5.551-1.223-9.388-2.094   c-3.463-0.521-6.604-1.049-9.193-1.393c-0.174-0.354-0.348-0.527-0.348-0.875c-0.178,0-0.178-0.35-0.352-0.523   c-0.174-0.352-0.346-0.699-0.346-0.699l18.929-10.262c0.2,0.352,0.352,0.699,0.549,1.051c0.148,0.52,0.35,0.871,0.499,1.219   c0.2,0.176,0.349,0.523,0.548,0.873c0.323,0.52,0.499,0.867,0.696,1.043l-13.224,6.951c2.787,0.695,5.905,1.395,9.562,2.094   c3.465,0.695,6.602,1.221,9.22,1.568c0,0.172,0.174,0.348,0.174,0.348c0.174,0.176,0.174,0.348,0.348,0.523   c0,0.176,0.172,0.352,0.351,0.523C93.117,503.914,93.292,504.265,93.292,504.441z"/>
	<path fill="currentColor" d="M77.796,473.128c0.351,0.871,0.697,1.57,1.048,2.24l-9.219,3.664l11.66,2.439l1.044,2.617l1.048,2.24   l-0.352,0.172l-14.62-3.459c-0.698,1.219-1.395,2.764-2.067,4.334c-1.222,2.266-2.093,4.533-2.963,6.451H63.2   c0-0.176-0.177-0.523-0.177-0.695c-0.173-0.352-0.173-0.527-0.347-0.879c-0.174-0.52-0.35-1.043-0.697-1.391   c1.044-1.92,2.094-3.662,3.139-5.557c0.87-1.74,1.895-3.662,2.938-5.576l-9.214,3.658c0-0.693-0.352-1.572-0.699-2.266   c-0.146-0.697-0.498-1.393-1.022-2.092l9.219-3.664c-1.919-0.67-4.359-1.369-7.497-2.42c-1.544-0.344-3.114-0.867-4.682-1.391   c0-0.523-0.179-1.049-0.353-1.568c-0.173-0.178-0.348-0.523-0.524-0.697c0-0.35-0.173-0.525-0.347-0.869h0.173   c1.568,0.695,2.965,1.215,4.334,1.914c1.044,0.35,2.44,0.871,4.184,1.396c1.048,0.348,1.919,0.695,2.618,1.043l7.997-12.703   l0.346-0.174l0.875,2.439l1.219,2.443l-6.801,9.914l9.214-3.662c0.204,0.172,0.204,0.521,0.525,1.219   C77.796,472.777,77.796,473.128,77.796,473.128z"/>
	<path fill="currentColor" d="M51.716,464.957L48.404,453.3c0.347,0,0.546,0,0.697,0c0.349,0,0.521-0.176,0.697-0.176   c0.175,0,0.347,0,0.698-0.172c0.174-0.176,0.348-0.176,0.52-0.352c0.177,1.049,0.352,2.268,0.699,3.314   c0.177,1.219,0.525,2.414,0.874,3.811l6.598-1.893l-0.846-3.141c-0.199-0.523-0.345-1.043-0.524-1.568   c-0.172-0.523-0.52-1.223-0.871-2.094c0.175,0,0.352,0,0.699,0c0.172,0,0.498-0.172,0.498-0.172c0.199,0,0.348-0.178,0.699-0.178   c0.346-0.172,0.523-0.352,0.697-0.352c0.173,1.223,0.347,2.445,0.696,3.838l1.044,3.141l7.646-2.27   c-0.521-1.391-0.871-2.611-1.219-3.658c-0.523-1.051-0.872-2.094-1.194-3.115c0.152,0,0.322,0,0.671-0.176c0.174,0,0.346,0,0.523,0   c0.176-0.172,0.348-0.172,0.698-0.344c0.175,0,0.521-0.18,0.521-0.18l3.49,11.461L51.716,464.957z"/>
	<path fill="currentColor" d="M60.756,446.177v-4.713l4.361-1.043l-0.347-1.57c-0.174-0.846-0.699-1.721-1.748-2.238   c-0.521-0.354-1.396-0.699-2.268-0.523v-4.709c1.05,0.176,2.095,0.525,2.965,1.396c1.222,1.043,2.093,2.611,2.618,4.707   l1.544,7.125L60.756,446.177L60.756,446.177z M51.194,443.558v4.859l9.563-2.24v-4.713l-3.983,0.871   c-0.35-1.742-0.35-3.133,0-3.982c0.525-1.043,1.569-1.74,3.114-2.266c0.35,0,0.697,0,0.87,0v-4.709   c-0.692-0.172-1.391-0.172-2.088,0c-1.723,0.525-2.94,1.396-3.465,2.967c-0.35,1.043-0.523,2.268-0.35,3.809h-0.346   c-0.525-1.369-1.224-2.412-2.267-3.111c-0.349-0.176-0.699-0.352-1.047-0.523v4.186c0.175,0,0.349,0,0.699,0   c0.521,0,1.045,0.322,1.568,0.5c0.348,0.348,0.699,0.695,0.871,1.043c0.176,0.348,0.348,0.871,0.521,1.57l0.178,0.871   L51.194,443.558L51.194,443.558L51.194,443.558z M47.905,444.431L47.905,444.431l3.29-0.873v4.859l-4.16,0.871l-1.742-7.824   c-0.352-1.742-0.352-3.311,0-4.334c0.52-1.564,1.567-2.439,3.312-2.785c0.847-0.178,1.717-0.178,2.591,0.172v4.188   c-0.35,0-0.874,0-1.221,0c-1.023,0.32-1.895,0.848-2.268,1.543c-0.498,0.699-0.498,1.57-0.321,2.617L47.905,444.431z"/>
	<path fill="currentColor" d="M58.49,410.703l0.178-0.351l2.787,0.351c0.524,0.875,0.872,1.718,1.222,2.768   c0.347,1.043,0.699,2.089,0.871,3.136c0.351,3.491-0.172,6.432-1.919,8.867c-1.564,2.441-3.983,3.813-7.297,4.162   c-3.834,0.521-6.947-0.352-9.392-2.416c-2.093-2.094-3.488-4.881-3.836-8.517c-0.174-1.05-0.174-2.097,0-3.319   c0-1.215,0.349-2.265,0.699-3.136l3.313,0.348v0.347c-0.697,0.699-1.396,1.57-1.744,2.616c-0.349,0.874-0.523,1.921-0.523,2.967   c0.352,2.441,1.57,4.157,3.84,5.206c1.916,0.869,4.157,1.219,6.597,0.869c2.792-0.348,4.858-1.223,6.429-2.788   c1.396-1.545,2.093-3.463,1.742-5.731c0-1.043-0.347-1.914-1.045-2.964C59.886,412.249,59.188,411.377,58.49,410.703z"/>
	<path fill="currentColor" d="M61.628,406.868H40.06c0-0.347,0-0.699,0.2-1.222c0-0.52,0-0.871,0-1.219c0-0.176,0-0.695,0-1.222   c-0.2-0.523-0.2-0.871-0.2-1.043h9.914c-3.114-2.768-6.429-5.556-9.914-8.179c0-0.172,0.2-0.523,0.2-0.871c0-0.523,0-0.698,0-0.871   c0-0.179,0-0.5,0-0.851c0-0.172-0.2-0.52-0.2-0.871h0.349c1.044,1.222,2.266,2.242,3.312,3.463   c0.699,0.699,1.745,1.576,3.141,2.795c0.847,0.871,1.544,1.394,2.242,1.92l12.18-8.702h0.348l-0.174,2.592l0.174,2.62l-9.913,6.954   h9.913c0,0.172,0,0.52,0,1.043c-0.174,0.526-0.174,1.046-0.174,1.222c0,0.348,0,0.699,0.174,1.219   C61.628,406.169,61.628,406.521,61.628,406.868z"/>
	<path fill="currentColor" d="M61.281,388.602l-21.372-2.262c0-0.172,0-0.698,0.151-1.046c0.2-0.523,0.2-1.046,0.2-1.218   c0.148-0.352,0.148-0.699,0-1.222c0-0.5,0-0.847,0-1.199l14.771,1.543c-1.746-1.89-4.013-4.156-6.626-6.947   c-2.593-2.589-4.858-4.682-6.951-6.428c0.177-0.347,0.177-0.698,0.177-0.871c0-0.176,0-0.348,0-0.695   c0.174-0.352,0.174-0.699,0.174-0.875l21.396,2.265c0,0.351,0,0.699-0.177,1.222c0,0.526-0.173,0.874-0.173,1.218   c0,0.179,0,0.527,0,1.05s0,1.043-0.174,1.222l-14.598-1.573c1.72,2.069,3.987,4.334,6.601,6.954   c2.618,2.612,4.859,4.682,6.775,6.599c0,0,0,0.176,0,0.348c0,0.351,0,0.351,0,0.523c0,0.176-0.175,0.523-0.175,0.699   C61.281,388.083,61.281,388.43,61.281,388.602z"/>
	<path fill="currentColor" d="M63.721,365.493l-19.825-4.885v-4.706c0-0.179,0-0.179,0.172-0.179l14.273,3.49   c-1.396-2.096-3.313-4.682-5.578-7.821c-2.267-2.791-4.161-5.232-5.904-7.298c0-0.351,0.175-0.523,0.175-0.699   c0.174-0.172,0.174-0.523,0.174-0.871c0.177-0.352,0.177-0.523,0.177-0.699l20.845,5.205c0,0.175-0.174,0.526-0.174,1.046   c-0.172,0.524-0.348,0.875-0.525,1.223c0,0.172,0,0.52-0.172,1.046c0,0.523-0.174,1.046-0.174,1.218l-14.42-3.659   c1.567,2.265,3.485,4.884,5.726,7.817c2.094,2.967,4.188,5.408,5.757,7.497c0,0.18,0,0.352,0,0.527   c-0.174,0.172-0.174,0.172-0.174,0.352c0,0.172-0.174,0.52-0.174,0.695C63.898,364.969,63.721,365.29,63.721,365.493   L63.721,365.493z M43.896,353.134c0.347-0.695,0.699-1.394,0.871-2.093c0.349-1.395,0.349-2.964,0.174-4.355   c-0.174-1.022-0.522-2.072-1.045-3.116V353.134L43.896,353.134L43.896,353.134z M43.896,360.608v-4.706   c0,0.172,0,0.521-0.177,1.043c0,0.523,0,0.871-0.174,1.05c0,0.344-0.174,0.695-0.346,1.218c-0.176,0.524-0.352,0.871-0.352,1.047   L43.896,360.608L43.896,360.608L43.896,360.608z M43.896,343.571L43.896,343.571c-0.177-0.348-0.351-0.875-0.524-1.218   l-1.919,0.871c1.57,2.441,1.919,4.854,1.396,7.123c-0.348,1.218-0.873,2.265-1.57,3.139c-0.869,1.046-1.716,1.89-2.963,2.589   l1.395,1.57c1.222-0.699,2.439-1.742,3.314-2.768c0.349-0.52,0.696-1.043,0.873-1.742L43.896,343.571L43.896,343.571z"/>
	<path fill="currentColor" d="M57.297,321.126l17.71,7.149c0,0.148-0.15,0.5-0.5,1.02c-0.176,0.527-0.349,0.871-0.349,1.046   c-0.173,0.352-0.349,0.699-0.524,1.222c-0.17,0.524-0.17,0.871-0.347,1.043l-20.004-7.994l4.533-11.132   c0.18,0.172,0.524,0.172,0.674,0.347c0.178,0.176,0.352,0.176,0.523,0.352c0.173,0,0.352,0,0.698,0.171   c0.174,0,0.523,0,0.697,0.172c-0.697,1.222-1.223,2.269-1.742,3.143C58.342,318.335,57.817,319.557,57.297,321.126z"/>
	<path fill="currentColor" d="M79.889,294.175c2.791,1.57,4.508,3.662,5.406,6.603c0.844,3.136,0.35,6.447-1.397,9.563   c-1.742,3.14-4.008,5.232-6.8,6.103c-1.043,0.348-1.89,0.348-2.938,0.348v-4.709c1.048,0.348,2.24,0.527,3.29,0.348   c2.094-0.172,3.661-1.219,4.707-3.137c1.222-1.89,1.222-3.986,0-6.08c-1.045-1.914-2.786-3.487-5.404-4.854   c-0.846-0.523-1.744-0.874-2.592-1.05v-4.881C76.054,292.43,77.974,293.125,79.889,294.175L79.889,294.175z M74.159,316.792v-4.709   c-0.871-0.172-1.57-0.523-2.441-1.046c-2.964-1.742-5.053-3.46-5.904-5.381c-0.871-1.917-0.871-3.834,0.174-5.752   c1.024-1.894,2.767-2.936,5.033-3.115c1.048,0,2.093,0.179,3.139,0.523v-4.881c-0.694,0-1.394,0.175-1.916,0.175   c-3.141,0.699-5.73,2.792-7.823,6.275c-1.743,3.292-2.268,6.603-1.396,9.566c0.697,2.94,2.444,5.206,5.384,6.775   C70.322,316.272,72.243,316.792,74.159,316.792L74.159,316.792z"/>
	<path fill="currentColor" d="M97.102,281.146l0.35-0.172l1.917,2.066c-0.175,1.049-0.525,2.093-0.871,3.139   c-0.522,0.871-1.047,1.921-1.744,2.792c-1.919,2.765-4.334,4.506-7.126,5.205c-2.79,0.699-5.578,0.172-8.169-1.57   c-3.313-2.265-5.06-5.033-5.404-8.169c-0.148-2.967,0.697-5.904,2.79-8.868c0.526-1.046,1.391-1.745,2.267-2.62   c0.871-0.668,1.742-1.367,2.615-1.89l2.267,2.414l-0.199,0.526c-1.045,0-2.067,0.172-3.113,0.695   c-1.049,0.348-1.747,1.046-2.268,1.917c-1.396,1.921-1.742,4.013-0.697,6.255c0.697,1.914,2.267,3.663,4.335,5.232   c2.266,1.566,4.361,2.241,6.627,2.066c2.09,0,3.81-1.022,5.054-2.943c0.698-0.871,1.022-1.742,1.197-2.961   C97.277,283.211,97.277,282.168,97.102,281.146z"/>
	<path fill="currentColor" d="M104.924,277.311c-0.174-0.699-0.671-1.742-1.542-3.487c-0.177-0.523-0.525-1.394-0.876-2.417   c-1.396-0.348-3.313-0.698-5.752-1.046c-0.324,0-2.592-0.348-6.602-0.871c-2.766-0.523-4.708-0.698-5.903-1.046   c0.147-0.176,0.5-0.523,1.046-1.046c0.35-0.352,0.697-0.699,1.021-1.043c0.175-0.176,0.373-0.526,0.697-1.05   c0.373-0.52,0.699-0.871,0.873-1.218c0.697,0.171,1.741,0.52,3.488,0.698c0.346,0.172,1.917,0.344,4.855,0.871   c1.919,0.348,3.139,0.523,3.661,0.699c-0.174-0.874-1.048-2.62-2.093-5.212c-0.697-1.219-1.568-3.136-2.765-5.576l1.021-1.047   l0.871-1.222c0.523,1.222,1.394,3.315,2.79,6.626c1.393,3.116,2.614,5.904,3.836,8.696c1.37,3.312,2.415,5.553,3.112,6.6   c-0.172,0.175-0.172,0.351-0.523,0.523c-0.174,0.172-0.348,0.351-0.52,0.523L104.924,277.311z"/>
	<path fill="currentColor" d="M115.362,247.571c0.175,0.169,0.349,0.169,0.697,0.347c2.96,1.395,6.076,2.613,9.389,4.007l1.049-1.042   c0.174,0.347,0.348,0.523,0.521,0.698c0.351,0.344,0.351,0.52,0.523,0.672c0.173,0.199,0.351,0.347,0.697,0.523   c0.347,0.172,0.524,0.347,0.697,0.52l-0.351,0.348c-0.521-0.169-1.218,0.179-2.089,0.699c-0.697,0.523-1.573,1.222-2.44,2.092   l-6.427,6.603c-1.048,1.047-1.747,1.745-2.268,2.441v-3.288c0.175-0.351,0.521-0.698,1.044-1.05   c0.699-0.692,1.396-1.219,1.742-1.742c0.525-0.52,1.223-1.218,1.919-1.915c0.525-0.526,1.223-1.222,1.569-1.749   c-1.919-1.042-4.008-1.914-6.101-2.96c-0.175,0-0.175,0-0.175-0.176v-5.028H115.362z M111.896,265.479   c0.174,0.175,0.349,0.348,0.525,0.523c0.323,0.175,0.497,0.351,0.674,0.695c0.345,0.175,0.521,0.347,0.696,0.699   c0.2,0.171,0.348,0.347,0.52,0.523l0.18-0.352c0-0.523,0.172-1.215,0.696-1.914c0.174,0,0.174-0.175,0.174-0.175v-3.288   c-0.351,0.148-0.524,0.32-0.698,0.5c-0.871-1.894-1.919-3.986-2.938-6.427c-0.871-2.093-1.742-4.162-2.792-6.431   c2.093,0.875,4.163,1.921,6.429,2.768v-5.029c-3.116-1.394-6.077-2.616-8.695-3.815c-0.172,0-0.352,0.152-0.523,0.324   c-0.174,0.348-0.348,0.523-0.348,0.699c-0.172,0-0.351,0.176-0.523,0.348c-0.348,0.172-0.521,0.351-0.521,0.351   c1.045,2.44,2.089,4.534,2.789,6.447c0.871,1.719,1.745,3.812,2.79,6.256c0.871,2.092,1.741,4.33,2.415,6.423L111.896,265.479   L111.896,265.479z"/>
	<path fill="currentColor" d="M133.271,240.094l-5.032,4.163v-2.417l3.285-2.788l-3.285-1.92v-5.206l15.118,8.348   c-0.174,0.172-0.692,0.52-1.192,1.043c-0.549,0.348-0.896,0.523-1.048,0.699c-0.199,0.172-0.525,0.52-1.046,1.043   c-0.522,0.351-0.869,0.698-0.869,0.698c-1.396-0.871-2.268-1.569-2.967-1.917C135.187,241.144,134.143,240.445,133.271,240.094   L133.271,240.094z M128.24,246.177L128.24,246.177c0.346,1.042,0.696,2.086,0.869,2.612c0.352,0.871,0.674,1.742,0.873,2.265   l-1.218,0.871l-0.523,0.675L128.24,246.177L128.24,246.177z M128.24,244.256v-2.417l-1.045,0.871l-2.445-7.643l3.49,2.063v-5.206   l-5.406-2.967l-0.847,0.699l-1.049,0.699l6.776,22.593l0.525-0.348v-6.423c-0.174-0.527-0.348-1.05-0.525-1.574L128.24,244.256   L128.24,244.256z"/>
	<path fill="currentColor" d="M144.055,228.785l5.232,7.825c-0.349,0.172-0.699,0.348-1.045,0.521c-0.524,0.351-0.872,0.523-1.05,0.698   c-0.346,0.176-0.52,0.352-1.045,0.695c-0.346,0.352-0.696,0.527-0.87,0.699l-3.312-4.854v-8.719l1.218,1.566   c0.525-0.344,1.046-0.695,1.568-1.219c0.698-0.675,1.049-1.546,0.872-2.592c0-0.696-0.348-1.566-0.872-2.438   c-0.697-1.05-1.396-1.749-2.242-2.093c-0.198-0.176-0.346-0.176-0.545-0.176v-2.791c2.787-1.195,5.055-0.5,6.623,1.917   c1.396,2.093,1.569,4.186,0.699,6.106C148.415,225.501,146.673,227.044,144.055,228.785L144.055,228.785z M141.966,234.369v-8.719   l-3.462-5.553l1.566-1.05c0.521-0.527,1.197-0.527,1.896-0.348v-2.791c-0.499,0.175-1.197,0.526-1.896,1.046l-6.601,4.186   L141.966,234.369L141.966,234.369z"/>
	<path fill="currentColor" d="M171.882,219.219h0.521l0.524,2.62c-0.524,0.87-1.222,1.741-2.093,2.265   c-0.871,0.699-1.717,1.397-2.768,1.894c-3.137,1.57-5.926,1.917-8.889,1.219c-2.767-0.695-5.034-2.592-6.428-5.377   c-1.744-3.491-2.067-6.775-0.871-9.743c1.217-2.616,3.31-4.881,6.622-6.6c0.875-0.351,1.92-0.87,3.117-1.05   c1.044-0.344,2.266-0.52,3.312-0.344l0.697,3.113l-0.346,0.176c-0.875-0.524-1.922-0.699-2.966-0.699   c-1.048-0.176-2.093,0-2.938,0.523c-2.268,1.046-3.315,2.788-3.663,5.229c-0.174,2.093,0.348,4.334,1.396,6.603   c1.392,2.44,2.94,4.186,4.856,5.057c1.918,0.871,3.835,0.871,6.101-0.172c0.85-0.526,1.544-1.222,2.242-2.092   C171.006,221.14,171.531,220.097,171.882,219.219z"/>
	<path fill="currentColor" d="M177.985,200.093l6.773,18.083c-0.172,0-0.697,0.172-1.222,0.344c-0.697,0.179-0.871,0.354-1.043,0.354   c-0.179,0.172-0.524,0.172-1.044,0.523c-0.352,0.172-0.877,0.348-1.051,0.521l-6.948-18.083c-1.049,0.351-1.92,0.871-2.616,1.222   c-0.699,0.348-1.569,0.695-2.589,1.219c-0.179-0.172-0.179-0.523-0.179-0.699c0-0.171-0.198-0.344-0.198-0.52   c-0.148-0.351-0.148-0.523-0.321-0.699c-0.174-0.172-0.174-0.347-0.353-0.523l15.119-5.729c0.179,0.348,0.179,0.874,0.352,1.219   c0,0.175,0.174,0.499,0.348,0.675c0,0.172,0.177,0.348,0.351,0.523c-1.569,0.347-2.439,0.699-2.792,0.699   C179.702,199.566,178.856,199.741,177.985,200.093z"/>
	<path fill="currentColor" d="M193.628,201.662h0.174c0.523-0.176,1.043-0.527,1.395-0.699c0.348-0.175,0.521-0.523,0.871-0.871   c0.348-0.527,0.524-1.05,0.524-1.746c0-0.523,0-1.198-0.351-1.718c-0.347-1.222-0.871-1.921-1.568-2.269   c-0.348-0.172-0.699-0.347-1.045-0.347v-2.093c1.567-0.348,2.787-0.523,3.984-0.176c1.394,0.352,2.443,1.395,2.963,2.964   c0.524,1.397,0.348,2.616-0.347,3.814c-0.696,1.043-1.568,1.917-2.965,2.44v0.348c1.57-0.348,2.792-0.348,4.01,0   c1.569,0.523,2.615,1.573,3.139,3.136c0.524,1.921,0.351,3.643-0.871,5.209c-1.044,1.394-2.617,2.44-4.535,2.964l-5.377,1.917   v-10.262l2.438,7.474l1.37-0.523c1.046-0.176,1.744-0.875,2.095-1.746c0.523-1.043,0.696-2.089,0.172-3.284   c-0.523-1.569-1.221-2.444-2.268-2.792c-1.022-0.348-2.241-0.348-3.81,0.171L193.628,201.662L193.628,201.662z M190.489,194.887   l1.57-0.527c0.521-0.172,1.044-0.347,1.569-0.347v-2.093c-0.173,0.176-0.352,0.176-0.352,0.176l-7.82,2.44l6.603,20.352   l1.569-0.351v-10.262l-0.173-0.523c0-0.176,0-0.176,0.173-0.176v-1.914l-0.871,0.348L190.489,194.887L190.489,194.887z"/>
	<path fill="currentColor" d="M205.11,188.983l11.634-2.268c0,0.175,0.175,0.52,0.175,0.699c0,0.348,0,0.52,0,0.698   c0,0.172,0.172,0.348,0.172,0.521c0.178,0.351,0.178,0.499,0.178,0.671c-1.049,0.176-2.067,0.176-3.29,0.351   c-1.044,0.172-2.439,0.348-3.836,0.696l1.222,6.629l3.287-0.699c0.551,0,1.044-0.175,1.569-0.351   c0.524-0.172,1.222-0.348,2.093-0.523c0,0,0,0.175,0.172,0.523c0,0.351,0,0.523,0,0.699c0,0.172,0,0.351,0.177,0.695   c0.177,0.175,0.177,0.499,0.177,0.675c-1.225,0-2.446,0.172-3.842,0.348l-3.11,0.695l1.395,7.825   c1.569-0.351,2.767-0.5,3.988-0.871c1.044-0.328,2.089-0.675,3.136-1.023c0,0.348,0,0.523,0,0.871c0,0.152,0,0.351,0.177,0.523   c0,0.148,0,0.324,0.173,0.672c0,0.176,0.174,0.526,0.174,0.699l-11.833,2.265L205.11,188.983z"/>
	<path fill="currentColor" d="M223.891,206.516l-1.916-21.375c0.346,0,0.697,0,1.219,0c0.523,0,0.874,0,1.221,0   c0.175,0,0.673-0.172,1.222-0.172c0.496-0.172,0.847-0.172,1.02-0.172l0.872,8.341c0.523,0,1.568,0,2.616-0.172   c1.219,0,1.917,0,2.095,0c0.692-0.172,1.392-0.172,1.742-0.172c1.896-0.351,2.938-0.351,3.113-0.351l-0.871-8.517   c0.347,0,0.697,0,1.222,0c0.521,0,0.871,0,1.22,0c0.176,0,0.698-0.175,1.222-0.175c0.521-0.175,0.871-0.175,1.045-0.351   l1.919,21.574c-0.174,0-0.697,0-1.222,0c-0.523,0-0.871,0-1.223,0c-0.172,0-0.521,0.172-1.043,0.172   c-0.522,0.176-0.872,0.176-1.22,0.176l-0.875-10.435c-0.52,0-1.567,0.172-2.786,0.172c-1.196,0-1.896,0.172-2.068,0.172   c-0.697,0-1.568,0-2.441,0.176c-0.874,0.175-1.745,0.175-2.27,0.351l0.876,10.438c-0.178,0-0.697,0-1.223,0   c-0.524,0-0.871,0-1.044,0c-0.351,0-0.673,0.172-1.222,0.172C224.589,206.516,224.242,206.516,223.891,206.516z"/>
	<path fill="currentColor" d="M247.356,204.275v-21.57c0.174,0,0.699,0.176,1.22,0.176c0.522,0,0.875,0,1.048,0c0.348,0,0.697,0,1.222,0   c0.521,0,0.847-0.176,1.193-0.176v8.52c0.696,0,1.569,0,2.79,0.172c1.044,0,1.741,0,2.094,0c0.697,0,1.219,0,1.742,0   c1.718,0,2.767-0.172,2.964-0.172v-8.52c0.35,0,0.699,0.176,1.197,0.176c0.521,0,0.871,0,1.22,0c0.172,0,0.522,0,1.067,0   c0.499,0,1.051-0.176,1.198-0.176v21.57c-0.147,0-0.5,0-1.021,0c-0.548-0.172-1.073-0.172-1.246-0.172   c-0.349,0-0.699,0-1.221,0.172c-0.497,0-0.847,0-1.196,0v-10.438c-0.549,0-1.396,0-2.79-0.172c-1.219,0-1.916,0-1.916,0   c-0.872,0-1.569,0-2.617,0c-0.871,0-1.719,0.172-2.267,0.172v10.438c-0.148,0-0.671,0-1.193,0   c-0.524-0.172-0.875-0.172-1.222-0.172c-0.175,0-0.525,0-1.048,0.172C248.056,204.275,247.531,204.275,247.356,204.275z"/>
	<path fill="currentColor" d="M277.971,192.096h0.521c4.538,0,6.805,1.742,6.805,5.229c0,2.592-0.875,4.337-2.618,5.56   c-1.219,0.691-2.792,1.218-4.707,1.218v-2.092c0.696-0.176,1.396-0.699,1.743-1.397c0.349-0.695,0.697-1.57,0.697-2.789   c0-1.194-0.349-2.065-0.871-2.937c-0.523-0.527-1.051-0.874-1.569-1.05V192.096L277.971,192.096z M288.057,204.275L288.057,204.275   v-21.57c0.177,0,0.697,0.176,1.222,0.176c0.525,0,0.871,0,1.046,0c0.351,0,0.698,0,1.222,0c0.524,0,0.871-0.176,1.222-0.176v21.57   c-0.178,0-0.697,0-1.222,0c-0.523-0.172-0.871-0.172-1.222-0.172c-0.175,0-0.521,0-1.046,0.172   C288.754,204.275,288.234,204.275,288.057,204.275L288.057,204.275z M275.555,182.705c-0.349,0-0.697,0-1.22,0   c-0.525,0-0.873,0-1.225,0c-0.174,0-0.696,0-1.219,0s-0.875,0-1.047,0v21.398h6.254c0.172,0,0.545,0,0.871,0v-2.092   c-0.172,0.175-0.326,0.175-0.326,0.175c-0.373,0-0.692,0.172-1.043,0.172c-0.348,0-0.698,0-1.046,0v-8.52h1.891   c0.199,0,0.354,0,0.525,0v-1.742h-2.416V182.705L275.555,182.705z"/>
	<path fill="currentColor" d="M297.101,204.275v-21.57c0.175,0,0.697,0.176,1.22,0.176c0.525,0,0.871,0,1.223,0c0.173,0,0.523,0,1.044,0   c0.523,0,1.049-0.176,1.222-0.176V197.5c1.74-1.917,3.809-4.361,6.249-7.321c2.265-2.765,4.187-5.208,5.728-7.474   c0.353,0,0.552,0,0.699,0c0.174,0,0.551,0,0.871,0c0.348,0,0.525,0,0.697,0v21.57c-0.172,0-0.523,0-1.019,0   c-0.551-0.172-1.049-0.172-1.25-0.172c-0.347,0-0.695,0-1.194,0.172c-0.546,0-0.896,0-1.218,0V189.48   c-1.748,2.093-3.837,4.534-6.104,7.322c-2.242,2.765-4.158,5.384-5.728,7.474c-0.174,0-0.352,0-0.522,0c-0.174,0-0.348,0-0.525,0   c-0.174,0-0.52,0-0.696,0C297.624,204.275,297.275,204.275,297.101,204.275L297.101,204.275z M298.846,179.042L298.846,179.042   l1.222-1.718c1.044,1.043,2.09,1.718,3.131,2.242c1.196,0.523,2.245,0.695,3.462,0.695c2.445,0,4.713-0.871,6.778-2.937l1.22,1.542   c-1.22,1.222-2.414,2.093-3.811,2.616c-1.396,0.523-2.79,0.874-4.36,0.874c-1.396,0-2.79-0.351-3.983-0.874   C301.111,180.959,299.891,180.088,298.846,179.042z"/>
	<path fill="currentColor" d="M339.545,184.97v19.305c-0.177,0-0.698,0-1.223,0c-0.695-0.172-1.048-0.172-1.048-0.172   c-0.348,0-0.699,0-1.219,0.172c-0.525,0-0.871,0-1.222,0V184.97c-1.046,0-2.09,0-2.768,0.172c-0.871,0-1.915,0.179-2.964,0.352   c0-0.352,0-0.523,0-0.871c0.178-0.172,0.178-0.351,0.178-0.523c0-0.348,0-0.523-0.178-0.699c0-0.345,0-0.52,0-0.695h16.168   c-0.174,0.523-0.174,0.871-0.174,1.394c0,0.172,0,0.351,0,0.699c0,0.172,0.174,0.523,0.174,0.696   c-1.569-0.172-2.44-0.352-2.792-0.352C341.436,184.97,340.564,184.97,339.545,184.97z"/>
	<path fill="currentColor" d="M347.363,182.705h12.008c-0.198,0.351-0.198,0.523-0.198,0.871c0,0.175,0,0.351,0,0.523   c0,0.172,0,0.351,0,0.699c0,0.344,0,0.523,0.198,0.696c-1.243-0.172-2.268-0.352-3.487-0.352c-1.046,0-2.441-0.172-3.836-0.172   v6.774h3.313c0.521,0,1.046,0,1.568,0c0.524,0,1.196-0.172,2.242-0.172c0,0,0,0.348-0.146,0.522c0,0.348,0,0.699,0,0.699   c0,0.172,0,0.344,0,0.695c0.146,0.348,0.146,0.523,0.146,0.698c-1.197-0.175-2.593-0.175-3.812-0.175h-3.313v7.821   c1.395,0,2.79,0,3.836,0c1.221-0.172,2.243-0.172,3.487-0.348c-0.198,0.176-0.198,0.524-0.198,0.699c0,0.172,0,0.521,0,0.699   c0,0,0,0.348,0,0.52c0,0.347,0,0.523,0.198,0.698h-12.008L347.363,182.705L347.363,182.705z"/>
	<path fill="currentColor" d="M377.978,183.055l-2.963,4.358l-3.662,5.205l0.35,0.699c1.044,1.741,2.091,3.662,3.141,5.552   c1.044,1.742,2.091,3.663,3.136,5.756c-0.346,0-0.871,0-1.568,0c-0.696-0.18-1.222-0.18-1.222-0.18c-0.346,0-0.871,0-1.568,0.18   c-0.697,0-1.047,0-1.047,0c-0.696-1.395-1.566-2.964-2.614-5.061c-0.496-0.871-1.046-1.917-1.546-2.937l-2.963,4.506   c-0.175,0.527-0.698,1.05-1.045,1.749c-0.352,0.691-0.699,1.218-0.873,1.742l-1.567-0.18l-1.543,0.18   c0.847-1.222,1.717-2.441,2.241-3.315c1.218-1.745,1.916-2.788,2.267-3.312c0.696-0.851,1.396-2.069,2.262-3.291l-6.423-11.653   c0.347,0,0.698,0,1.37,0.172c0.524,0,1.045,0,1.395,0c0.349,0,0.699,0,1.396,0c0.521-0.172,1.046-0.172,1.396-0.172   c0.521,1.216,1.394,2.785,2.44,4.706c0.496,1.023,0.846,1.894,1.391,2.937c1.548-2.586,3.117-5.03,4.86-7.643l1.395,0.172   L377.978,183.055z"/>
	<path fill="currentColor" d="M380.571,204.626v-21.571c0.175,0,0.521,0,1.044,0.172c0.524,0,1.044,0,1.224,0c0.346,0,0.696,0,1.219,0   c0.522-0.172,0.875-0.172,1.223-0.172v8.517c0.697,0,1.543,0,2.587,0.172c1.223,0,1.919,0,2.096,0c0.868,0,1.395,0,1.919,0   c1.74-0.172,2.786-0.172,2.964-0.172v-8.517c0.174,0,0.672,0,1.217,0.172c0.5,0,0.852,0,1.05,0c0.323,0,0.672,0,1.193,0   c0.522-0.172,1.048-0.172,1.222-0.172v21.571c-0.174,0-0.698,0-1.222,0c-0.521-0.18-0.87-0.18-1.193-0.18   c-0.198,0-0.55,0-1.05,0.18c-0.545,0-0.869,0-1.217,0v-10.438c-0.525,0-1.573-0.175-2.791-0.175c-1.224,0-1.914,0-2.092,0   c-0.699,0-1.57,0-2.442,0c-0.846,0-1.72,0-2.239,0.175v10.438c-0.348,0-0.699,0-1.223,0c-0.521-0.18-0.873-0.18-1.219-0.18   c-0.18,0-0.525,0-1.05,0.18C381.266,204.626,380.745,204.626,380.571,204.626z"/>
	<path fill="currentColor" d="M404.059,204.626v-21.571c0.173,0,0.525,0,1.045,0.172c0.523,0,0.85,0,1.197,0c0.199,0,0.696,0,1.222,0   c0.525-0.172,0.871-0.172,1.22-0.172v14.769c1.744-1.894,3.834-4.334,6.105-7.298c2.236-2.94,4.157-5.384,5.727-7.471   c0.351,0,0.697,0,0.871,0c0.176,0,0.351,0,0.697,0c0.351,0,0.697,0,0.875,0v21.571c-0.353,0-0.697,0-1.223,0   c-0.523-0.18-0.871-0.18-1.222-0.18c-0.175,0-0.522,0-1.046,0.18c-0.522,0-1.048,0-1.222,0v-14.972   c-1.916,2.089-3.813,4.706-6.25,7.494c-2.269,2.768-4.187,5.384-5.756,7.478c-0.148,0-0.349,0-0.5,0c-0.175,0-0.347,0-0.347,0   c-0.352,0-0.524,0-0.698,0C404.407,204.626,404.231,204.626,404.059,204.626z"/>
	<path fill="currentColor" d="M426.476,191.225v-8.169c0.353,0,0.698,0,1.224,0.172c0.525,0,0.871,0,1.223,0c0.175,0,0.521,0,1.044,0   c0.521-0.172,1.046-0.172,1.22-0.172v8.169c0,0.871,0.521,1.57,1.222,1.914c0.697,0.351,1.543,0.526,2.417,0.526   c0.873,0,1.566-0.175,2.442-0.526c0.871-0.344,1.742-0.871,2.787-1.566v-8.517c0.177,0,0.521,0,1.047,0.172   c0.524,0,0.846,0,1.192,0c0.201,0,0.697,0,1.248,0c0.5-0.172,0.847-0.172,1.196-0.172v21.571c-0.351,0-0.696,0-1.196,0   c-0.551-0.18-0.896-0.18-1.248-0.18c-0.146,0-0.668,0-1.192,0.18c-0.524,0-0.87,0-1.047,0v-10.438   c-1.396,0.699-2.441,1.219-3.313,1.57c-1.222,0.348-2.438,0.695-3.811,0.695c-1.568,0-3.14-0.523-4.359-1.395   C427.174,194.013,426.476,192.794,426.476,191.225z"/>
	<path fill="currentColor" d="M448.745,183.055h11.982c0,0.345,0,0.521,0,0.696c-0.148,0.348-0.148,0.52-0.148,0.699   c0,0.172,0,0.348,0.148,0.692c0,0.179,0,0.526,0,0.699c-1.021-0.172-2.07-0.347-3.287-0.347c-1.048-0.172-2.439-0.172-4.014-0.172   v6.775h3.314c0.698,0,1.22,0,1.741,0c0.525,0,1.225-0.176,2.096-0.176c0,0,0,0.176,0,0.523c0,0.351,0,0.523,0,0.695   c0,0.179,0,0.351,0,0.699c0,0.351,0,0.523,0,0.699c-1.223-0.176-2.44-0.348-3.837-0.348h-3.314v7.997c1.573,0,2.966,0,4.014,0   c1.217-0.175,2.269-0.351,3.287-0.351c0,0.176,0,0.351,0,0.699c-0.148,0.172-0.148,0.351-0.148,0.523c0,0.176,0,0.348,0.148,0.695   c0,0.351,0,0.523,0,0.695h-11.982V183.055z"/>
	<path fill="currentColor" d="M480.23,200.788l0.352,0.175l-0.696,2.788c-0.871,0.351-1.919,0.695-2.966,1.046   c-1.049,0.176-2.094,0.176-3.137,0.176c-3.465,0-6.256-0.871-8.522-2.789c-2.24-1.921-3.284-4.536-3.284-7.649   c0-4.01,1.192-6.951,3.636-9.043c2.268-2.093,5.231-2.964,8.863-2.964c1.051,0,2.096,0.176,3.314,0.352   c1.047,0.347,2.096,0.695,3.141,1.218l-0.896,3.136h-0.348c-0.672-0.695-1.371-1.394-2.242-2.093   c-1.047-0.52-1.918-0.692-2.969-0.692c-2.439,0-4.33,1.043-5.551,2.964c-1.22,1.89-1.743,3.983-1.743,6.6   c0,2.788,0.697,5.029,1.915,6.599c1.223,1.745,3.116,2.62,5.559,2.62c0.871,0,1.916-0.348,2.964-0.699   C478.662,202.01,479.532,201.486,480.23,200.788z"/>
	<path fill="currentColor" d="M483.694,204.626v-21.571c0.347,0,0.698,0,1.222,0.172c0.521,0,1.048,0,1.22,0c0.178,0,0.699,0,1.222,0   c0.521-0.172,0.871-0.172,1.046-0.172v9.911c2.764-3.139,5.557-6.427,8.17-9.911c0.353,0,0.525,0.172,0.871,0.172   c0.524,0,0.699,0,0.875,0c0.347,0,0.495,0,0.846,0c0.175,0,0.552-0.172,0.871-0.172v0.345c-1.222,1.05-2.24,2.093-3.463,3.315   c-0.697,0.699-1.568,1.745-2.791,3.112c-0.871,0.871-1.391,1.57-1.916,2.269l8.693,12.179v0.352l-2.591-0.18l-2.614,0.18   l-6.951-9.918v9.918c-0.175,0-0.524,0-1.046,0c-0.521-0.18-0.87-0.18-1.222-0.18c-0.172,0-0.697,0-1.219,0.18   C484.393,204.626,484.04,204.626,483.694,204.626z"/>
	<path fill="currentColor" d="M501.952,204.626v-21.571c0.351,0,0.697,0,1.221,0.172c0.525,0,0.871,0,1.223,0c0.174,0,0.524,0,1.045,0   c0.524-0.172,1.048-0.172,1.224-0.172v14.769c1.741-1.894,3.637-4.334,6.076-7.298c2.267-2.94,4.16-5.384,5.729-7.471   c0.347,0,0.521,0,0.693,0c0.178,0,0.525,0,0.876,0c0.347,0,0.697,0,0.697,0v21.571c-0.178,0-0.524,0-1.048,0   c-0.525-0.18-1.045-0.18-1.22-0.18c-0.352,0-0.696,0-1.196,0.18c-0.524,0-0.871,0-1.222,0v-14.972   c-1.743,2.089-3.837,4.706-6.104,7.494c-2.067,2.768-3.983,5.384-5.554,7.478c-0.174,0-0.352,0-0.522,0c-0.174,0-0.349,0-0.524,0   c-0.175,0-0.346,0-0.697,0C502.477,204.626,502.129,204.626,501.952,204.626z"/>
	<path fill="currentColor" d="M525.271,204.626v-21.571c0.174,0,0.694,0,1.192,0.172c0.549,0,0.875,0,1.049,0c0.346,0,0.699,0,1.219,0   c0.523-0.172,0.874-0.172,1.223-0.172v14.769c1.744-1.894,3.834-4.334,6.252-7.298c2.265-2.765,4.185-5.384,5.754-7.471   c0.349,0,0.522,0,0.697,0c0.174,0,0.521,0,0.871,0c0.351,0,0.523,0,0.674,0v21.571c-0.149,0-0.496,0-1.022,0   c-0.521-0.18-1.047-0.18-1.22-0.18c-0.349,0-0.696,0-1.223,0.18c-0.521,0-0.871,0-1.219,0v-14.972   c-1.746,2.089-3.813,4.706-6.078,7.494c-2.267,2.768-4.359,5.384-5.928,7.478c0,0-0.174,0-0.353,0c-0.347,0-0.347,0-0.499,0   c-0.197,0-0.545,0-0.695,0C525.767,204.626,525.444,204.626,525.271,204.626L525.271,204.626z M527.012,179.39L527.012,179.39   l1.199-1.715c1.043,1.043,2.091,1.715,3.138,2.241c1.042,0.52,2.265,0.695,3.462,0.695c2.439,0,4.707-1.046,6.622-2.937   l1.224,1.542c-1.046,1.043-2.268,1.917-3.664,2.613c-1.391,0.526-2.938,0.875-4.334,0.875c-1.395,0-2.79-0.348-4.183-0.875   C529.254,181.311,528.034,180.436,527.012,179.39z"/>
	<g>
		<path fill="currentColor" d="M49.117,648.189h3.78v9.338l6.045-9.338h3.864v14.867h-3.779v-9.506l-6.13,9.506h-3.78V648.189z"/>
		<path fill="currentColor" d="M66.95,648.189h4.872l3.694,10.357l3.726-10.357h4.855v14.867h-3.345v-9.787l-3.625,9.787h-3.361    l-3.457-9.787v9.787H66.95V648.189z"/>
		<path fill="currentColor" d="M96.655,658.324l3.922,0.658c-0.507,1.438-1.302,2.531-2.389,3.279c-1.087,0.754-2.447,1.129-4.081,1.129    c-2.584,0-4.497-0.844-5.738-2.531c-0.981-1.355-1.471-3.063-1.471-5.125c0-2.465,0.644-4.395,1.933-5.789    c1.288-1.395,2.917-2.094,4.885-2.094c2.212,0,3.958,0.729,5.235,2.191c1.278,1.461,1.891,3.699,1.835,6.715H90.93    c0.027,1.164,0.345,2.072,0.952,2.721c0.605,0.646,1.362,0.971,2.269,0.971c0.614,0,1.133-0.168,1.553-0.502    C96.125,659.613,96.44,659.07,96.655,658.324z M96.88,654.347c-0.029-1.139-0.322-2.006-0.882-2.596    c-0.562-0.596-1.241-0.889-2.043-0.889c-0.86,0-1.569,0.311-2.13,0.938c-0.56,0.625-0.833,1.475-0.824,2.547H96.88z"/>
		<path fill="currentColor" d="M103.838,648.189h3.933v5.445h5.628v-5.445h3.946v14.867h-3.946v-6.246h-5.628v6.246h-3.933V648.189z"/>
		<path fill="currentColor" d="M121.208,648.189h3.78v9.338l6.049-9.338h3.862v14.867h-3.778v-9.506l-6.133,9.506h-3.78V648.189z"/>
		<path fill="currentColor" d="M146.869,663.056v-20.523h6.2l3.725,14l3.683-14h6.214v20.523h-3.848V646.9l-4.074,16.156h-3.99    l-4.06-16.156v16.156H146.869L146.869,663.056z"/>
		<path fill="currentColor" d="M170.778,663.056v-3.936h3.936v3.936H170.778z"/>
		<path fill="currentColor" d="M183.391,663.056v-17.051h-6.089v-3.473h16.31v3.473h-6.076v17.051H183.391z"/>
		<path fill="currentColor" d="M193.023,663.056v-3.936h3.934v3.936H193.023z"/>
		<path fill="currentColor" d="M209.051,642.533h4.144v8.734c0.924-0.094,1.551-0.33,1.877-0.715c0.326-0.381,0.831-1.445,1.512-3.189    c0.858-2.223,1.722-3.602,2.589-4.146c0.858-0.539,2.245-0.809,4.159-0.809c0.093,0,0.294-0.004,0.601-0.016v3.066l-0.587-0.014    c-0.849,0-1.47,0.104-1.862,0.313c-0.394,0.209-0.711,0.529-0.952,0.959c-0.242,0.428-0.603,1.313-1.078,2.646    c-0.251,0.709-0.525,1.299-0.818,1.777c-0.293,0.473-0.815,0.922-1.563,1.344c0.924,0.26,1.688,0.787,2.289,1.58    c0.604,0.795,1.266,1.914,1.982,3.361l2.8,5.629h-4.871l-2.451-5.307c-0.036-0.074-0.115-0.221-0.237-0.438    c-0.047-0.072-0.22-0.395-0.519-0.967c-0.531-1.004-0.969-1.637-1.308-1.889c-0.341-0.25-0.861-0.383-1.563-0.393v8.99h-4.144    V642.533z"/>
		<path fill="currentColor" d="M229.741,652.722l-3.57-0.645c0.401-1.434,1.092-2.502,2.073-3.189c0.979-0.689,2.436-1.037,4.367-1.037    c1.755,0,3.063,0.207,3.919,0.625c0.859,0.416,1.462,0.941,1.813,1.58c0.35,0.643,0.524,1.814,0.524,3.521l-0.042,4.592    c0,1.307,0.063,2.271,0.188,2.893c0.127,0.617,0.361,1.283,0.708,1.996h-3.892c-0.104-0.264-0.229-0.652-0.378-1.166    c-0.064-0.232-0.111-0.385-0.142-0.459c-0.671,0.652-1.391,1.141-2.155,1.469c-0.767,0.328-1.582,0.49-2.448,0.49    c-1.531,0-2.737-0.416-3.619-1.246c-0.883-0.83-1.325-1.881-1.325-3.148c0-0.842,0.203-1.592,0.604-2.25    c0.398-0.658,0.962-1.16,1.686-1.512c0.723-0.348,1.765-0.654,3.129-0.914c1.838-0.346,3.112-0.668,3.821-0.965v-0.393    c0-0.756-0.188-1.297-0.562-1.617c-0.373-0.324-1.076-0.482-2.113-0.482c-0.699,0-1.246,0.135-1.638,0.412    C230.301,651.552,229.984,652.035,229.741,652.722z M235.005,655.916c-0.505,0.166-1.303,0.369-2.395,0.602    s-1.806,0.465-2.144,0.688c-0.511,0.363-0.771,0.826-0.771,1.387c0,0.551,0.206,1.025,0.616,1.428    c0.412,0.402,0.934,0.602,1.568,0.602c0.708,0,1.386-0.232,2.03-0.699c0.476-0.354,0.788-0.789,0.938-1.303    c0.102-0.334,0.154-0.977,0.154-1.918v-0.785H235.005z"/>
		<path fill="currentColor" d="M243.811,648.189h13.171v14.867h-3.918v-11.678h-5.361v6.678c0,1.697-0.196,2.891-0.588,3.578    c-0.392,0.686-0.825,1.135-1.302,1.352c-0.476,0.211-1.24,0.318-2.297,0.318c-0.625,0-1.452-0.084-2.476-0.248v-2.9    c0.083,0,0.302,0.01,0.656,0.027c0.412,0.029,0.728,0.043,0.953,0.043c0.53,0,0.858-0.176,0.979-0.525    c0.122-0.348,0.183-1.32,0.183-2.918L243.811,648.189L243.811,648.189z"/>
		<path fill="currentColor" d="M263.897,652.722l-3.569-0.645c0.4-1.434,1.092-2.502,2.071-3.189c0.981-0.689,2.437-1.037,4.368-1.037    c1.754,0,3.061,0.207,3.919,0.625c0.857,0.416,1.463,0.941,1.813,1.58c0.352,0.643,0.524,1.814,0.524,3.521l-0.042,4.592    c0,1.307,0.063,2.271,0.189,2.893c0.126,0.617,0.36,1.283,0.707,1.996h-3.893c-0.103-0.264-0.228-0.652-0.378-1.166    c-0.064-0.232-0.11-0.385-0.14-0.459c-0.672,0.652-1.392,1.141-2.156,1.469s-1.583,0.49-2.449,0.49    c-1.531,0-2.736-0.416-3.617-1.246c-0.884-0.83-1.324-1.881-1.324-3.148c0-0.842,0.201-1.592,0.601-2.25    c0.403-0.658,0.964-1.16,1.688-1.512c0.725-0.348,1.766-0.654,3.129-0.914c1.838-0.346,3.113-0.668,3.821-0.965v-0.393    c0-0.756-0.188-1.297-0.561-1.617c-0.374-0.324-1.077-0.482-2.113-0.482c-0.7,0-1.246,0.135-1.639,0.412    C264.458,651.552,264.141,652.035,263.897,652.722z M269.162,655.916c-0.504,0.166-1.304,0.369-2.395,0.602    c-1.092,0.232-1.806,0.465-2.142,0.688c-0.516,0.363-0.771,0.826-0.771,1.387c0,0.551,0.206,1.025,0.618,1.428    c0.41,0.402,0.932,0.602,1.566,0.602c0.709,0,1.387-0.232,2.03-0.699c0.477-0.354,0.788-0.789,0.938-1.303    c0.104-0.334,0.154-0.977,0.154-1.918V655.916z"/>
		<path fill="currentColor" d="M276.804,648.189h3.612v11.688h4.563v-11.688h3.625v11.688h4.55v-11.688h3.626v14.867h-19.977V648.189z"/>
		<path fill="currentColor" d="M300.645,648.189h3.933v5.445h5.629v-5.445h3.946v14.867h-3.946v-6.246h-5.629v6.246h-3.933V648.189z"/>
		<path fill="currentColor" d="M318.016,648.189h3.781v9.338l6.047-9.338h3.862v14.867h-3.778v-9.506l-6.131,9.506h-3.781V648.189z"/>
		<path fill="currentColor" d="M335.584,648.189h3.921v6.072c0.652-0.074,1.115-0.271,1.386-0.6c0.27-0.328,0.598-1.041,0.979-2.146    c0.505-1.465,1.055-2.398,1.651-2.811s1.38-0.615,2.354-0.615c0.297,0,0.813,0.021,1.553,0.068l0.014,2.605    c-1.037,0-1.697,0.098-1.988,0.293c-0.289,0.203-0.602,0.816-0.938,1.834c-0.457,1.369-1.115,2.213-1.973,2.531    c1.239,0.348,2.291,1.424,3.148,3.236c0.046,0.092,0.097,0.188,0.153,0.295l2.197,4.102h-4.229l-1.958-4.299    c-0.402-0.867-0.751-1.428-1.044-1.674c-0.294-0.246-0.731-0.371-1.309-0.371v6.344h-3.921v-14.865H335.584z"/>
		<path fill="currentColor" d="M348.8,655.41c0-1.307,0.321-2.568,0.966-3.795c0.645-1.221,1.556-2.152,2.737-2.797    c1.181-0.646,2.497-0.967,3.951-0.967c2.253,0,4.095,0.729,5.531,2.191c1.438,1.461,2.156,3.305,2.156,5.535    c0,2.248-0.728,4.115-2.178,5.594c-1.451,1.479-3.275,2.219-5.48,2.219c-1.361,0-2.662-0.309-3.897-0.926    c-1.235-0.613-2.177-1.52-2.82-2.707C349.121,658.57,348.8,657.119,348.8,655.41z M352.831,655.623    c0,1.475,0.351,2.602,1.05,3.387c0.699,0.781,1.563,1.174,2.59,1.174s1.887-0.393,2.582-1.174    c0.695-0.785,1.044-1.922,1.044-3.418c0-1.453-0.349-2.574-1.044-3.357c-0.695-0.781-1.556-1.176-2.582-1.176    c-1.025,0-1.891,0.395-2.59,1.176C353.182,653.017,352.831,654.148,352.831,655.623z"/>
		<path fill="currentColor" d="M367.264,648.189h8.608c1.765,0,3.083,0.32,3.964,0.967c0.876,0.641,1.313,1.611,1.313,2.908    c0,0.832-0.24,1.557-0.721,2.172c-0.479,0.617-1.086,1.025-1.813,1.23c1.025,0.254,1.793,0.723,2.295,1.414    c0.506,0.689,0.758,1.445,0.758,2.27c0,1.154-0.426,2.096-1.274,2.818s-2.104,1.088-3.764,1.088h-9.367L367.264,648.189    L367.264,648.189z M371.227,654.361h2.533c1.222,0,2.104-0.152,2.649-0.461c0.547-0.311,0.821-0.793,0.821-1.457    c0-0.625-0.255-1.07-0.763-1.338c-0.509-0.264-1.412-0.398-2.709-0.398h-2.533L371.227,654.361L371.227,654.361z M371.227,660.535    h3.107c1.119,0,1.938-0.135,2.448-0.406c0.513-0.27,0.771-0.756,0.771-1.455c0-0.729-0.296-1.23-0.882-1.504    c-0.591-0.277-1.732-0.412-3.432-0.412h-2.015L371.227,660.535L371.227,660.535z"/>
		<path fill="currentColor" d="M387.408,652.722l-3.569-0.645c0.399-1.434,1.093-2.502,2.07-3.189c0.98-0.689,2.437-1.037,4.368-1.037    c1.755,0,3.063,0.207,3.919,0.625c0.859,0.416,1.463,0.941,1.814,1.58c0.35,0.643,0.522,1.814,0.522,3.521l-0.041,4.592    c0,1.307,0.063,2.271,0.189,2.893c0.125,0.617,0.361,1.283,0.705,1.996h-3.893c-0.102-0.264-0.228-0.652-0.376-1.166    c-0.065-0.232-0.11-0.385-0.141-0.459c-0.672,0.652-1.391,1.141-2.157,1.469c-0.765,0.328-1.581,0.49-2.449,0.49    c-1.529,0-2.736-0.416-3.617-1.246c-0.884-0.83-1.324-1.881-1.324-3.148c0-0.842,0.201-1.592,0.604-2.25    c0.403-0.658,0.964-1.16,1.687-1.512c0.725-0.348,1.768-0.654,3.129-0.914c1.838-0.346,3.113-0.668,3.822-0.965v-0.393    c0-0.756-0.187-1.297-0.562-1.617c-0.373-0.324-1.077-0.482-2.113-0.482c-0.7,0-1.246,0.135-1.637,0.412    C387.968,651.552,387.65,652.035,387.408,652.722z M392.672,655.916c-0.506,0.166-1.303,0.369-2.395,0.602    c-1.093,0.232-1.806,0.465-2.142,0.688c-0.515,0.363-0.771,0.826-0.771,1.387c0,0.551,0.203,1.025,0.615,1.428    c0.41,0.402,0.932,0.602,1.568,0.602c0.709,0,1.386-0.232,2.028-0.699c0.477-0.354,0.789-0.789,0.938-1.303    c0.104-0.334,0.154-0.977,0.154-1.918v-0.785H392.672z"/>
	</g>
</g>
</svg>