<svg width="128" height="128" viewBox="0 0 128 128" fill="none" xmlns="http://www.w3.org/2000/svg">
<circle cx="64" cy="64" r="64" fill="#181A1B" fill-opacity="0.8"/>
<g clip-path="url(#clip0_519_2)">
<path d="M52.0533 41.7067C49.2267 41.7067 46.9333 44.2508 46.9333 47.3867V81.4667C46.9333 84.6025 49.2267 87.1467 52.0533 87.1467H55.4667C58.2933 87.1467 60.5867 84.6025 60.5867 81.4667V47.3867C60.5867 44.2508 58.2933 41.7067 55.4667 41.7067H52.0533ZM72.5334 41.7067C69.7067 41.7067 67.4134 44.2508 67.4134 47.3867V81.4667C67.4134 84.6025 69.7067 87.1467 72.5334 87.1467H75.9467C78.7734 87.1467 81.0667 84.6025 81.0667 81.4667V47.3867C81.0667 44.2508 78.7734 41.7067 75.9467 41.7067H72.5334Z" fill="white"/>
</g>
<defs>
<clipPath id="clip0_519_2">
<path d="M46.9333 34.1334H81.0667V84.72C81.0667 90.2429 76.5895 94.72 71.0667 94.72H56.9333C51.4105 94.72 46.9333 90.2429 46.9333 84.72V34.1334Z" fill="white"/>
</clipPath>
</defs>
</svg>
